# xmcd
#
# Track frame offsets:
#	150
#	9248
#	24899
#	43413
#	62274
#	80209
#	95813
#	110592
#	124162
#	133208
#	147541
#	162253
#
# Disc length: 2350 seconds
#
# Revision: 1
# Processed by: cddbd v1.5.1PL2 Copyright (c) Steve Scherf et al.
# Submitted via: audiograbber 1.82.02
#
DISCID=a8092c0c
DTITLE=Various Artists  - Fleetwoodgrass
DYEAR=2005
DGENRE=Bluegrass
TTITLE0=Never Going Back Again
TTITLE1=World Turning
TTITLE2=Rhiannon
TTITLE3=Say You Love Me
TTITLE4=Crystal
TTITLE5=Over My Head
TTITLE6=Don't Stop
TTITLE7=When the Sun Goes Down
TTITLE8=Albatross
TTITLE9=Landslide
TTITLE10=Station Man
TTITLE11=Big Love
EXTD=
EXTT0=
EXTT1=
EXTT2=
EXTT3=
EXTT4=
EXTT5=
EXTT6=
EXTT7=
EXTT8=
EXTT9=
EXTT10=
EXTT11=
PLAYORDER=
